<?xml version="1.0" encoding="utf-8"?>
<!-- Generator: Adobe Illustrator 26.2.1, SVG Export Plug-In . SVG Version: 6.00 Build 0)  -->
<svg version="1.1" id="Layer_1" xmlns="http://www.w3.org/2000/svg" xmlns:xlink="http://www.w3.org/1999/xlink" x="0px" y="0px"
	 viewBox="0 0 512 512" style="enable-background:new 0 0 512 512;" xml:space="preserve">
<style type="text/css">
	.st0{fill:#FFFFFF;}
</style>
<path class="st0" d="M41.4,233.4c-12.5,12.5-12.5,32.8,0,45.3l160,160c12.5,12.5,32.8,12.5,45.3,0c12.5-12.5,12.5-32.8,0-45.3
	L109.3,256l137.3-137.4c12.5-12.5,12.5-32.8,0-45.3s-32.8-12.5-45.3,0L41.4,233.4L41.4,233.4z M393.4,73.4l-160,160
	c-12.5,12.5-12.5,32.8,0,45.3l160,160c12.5,12.5,32.8,12.5,45.3,0s12.5-32.8,0-45.3L301.3,256l137.3-137.4
	c12.5-12.5,12.5-32.8,0-45.3S405.8,60.8,393.4,73.4L393.4,73.4z"/>
</svg>
